<svg width="151" height="24" viewBox="0 0 151 24" fill="none" xmlns="http://www.w3.org/2000/svg">
<path d="M17.352 4.328L10.248 23.256H8.76L3.128 2.648L0.728 1.8V1.192H9.592V1.8L6.84 2.616L11.224 19.112L10.392 19.224L17.048 0.935999H18.6L25.816 19.496L24.648 19.864L28.728 2.632L25.976 1.784V1.192H32.648V1.784L30.296 2.648L25.048 23.256H23.56L16.264 4.824L17.352 4.328ZM39.176 22.136C39.944 22.136 40.616 21.928 41.192 21.512C41.768 21.096 42.216 20.4507 42.536 19.576C42.856 18.7013 43.016 17.576 43.016 16.2C43.016 14.728 42.856 13.496 42.536 12.504C42.2267 11.5013 41.7787 10.744 41.192 10.232C40.616 9.72 39.912 9.464 39.08 9.464C38.312 9.464 37.64 9.672 37.064 10.088C36.488 10.504 36.04 11.1547 35.72 12.04C35.4107 12.9147 35.256 14.04 35.256 15.416C35.256 16.8773 35.4107 18.1093 35.72 19.112C36.0293 20.104 36.4773 20.856 37.064 21.368C37.6507 21.88 38.3547 22.136 39.176 22.136ZM39.048 23.352C37.6187 23.352 36.3547 23.0373 35.256 22.408C34.168 21.7787 33.3147 20.9093 32.696 19.8C32.088 18.68 31.784 17.3893 31.784 15.928C31.784 14.4453 32.104 13.128 32.744 11.976C33.3947 10.8133 34.28 9.90133 35.4 9.24C36.52 8.57867 37.7893 8.248 39.208 8.248C40.648 8.248 41.912 8.56267 43 9.192C44.0987 9.82133 44.952 10.696 45.56 11.816C46.168 12.9253 46.472 14.2107 46.472 15.672C46.472 17.1653 46.1467 18.4933 45.496 19.656C44.8453 20.808 43.96 21.7147 42.84 22.376C41.7307 23.0267 40.4667 23.352 39.048 23.352ZM58.1943 8.36C58.7596 8.36 59.1756 8.50933 59.4423 8.808C59.7089 9.096 59.8423 9.47467 59.8423 9.944C59.8423 10.52 59.6556 10.9787 59.2823 11.32C58.9196 11.6613 58.4609 11.832 57.9063 11.832C57.6076 11.832 57.3303 11.7893 57.0743 11.704C56.8289 11.6187 56.5729 11.5387 56.3063 11.464C56.0396 11.3787 55.7409 11.336 55.4103 11.336C55.1543 11.336 54.8876 11.3733 54.6103 11.448C54.3329 11.5227 54.0609 11.6293 53.7943 11.768C53.5276 11.9067 53.2823 12.072 53.0583 12.264L52.7863 11.608C53.4583 10.9893 54.0609 10.4773 54.5943 10.072C55.1276 9.656 55.6076 9.32533 56.0343 9.08C56.4609 8.824 56.8503 8.64267 57.2023 8.536C57.5649 8.41867 57.8956 8.36 58.1943 8.36ZM53.4743 11.288V21.704L55.8743 22.44V23H48.0503V22.44L50.2903 21.72V11.656C50.1409 11.496 49.9596 11.352 49.7463 11.224C49.5436 11.0853 49.2983 10.9413 49.0103 10.792C48.7329 10.6427 48.4023 10.488 48.0183 10.328V9.896L52.9623 8.216H53.2823L53.4743 11.288ZM65.46 21.72L67.732 22.44V23H60.036V22.44L62.276 21.72V3.432C62.1373 3.272 61.9507 3.112 61.716 2.952C61.492 2.78133 61.22 2.60533 60.9 2.424C60.58 2.24267 60.212 2.056 59.796 1.864V1.464L65.284 -0.00800133H65.604L65.46 2.84V21.72ZM80.0515 12.648C80.0515 11.752 79.7528 11.0107 79.1555 10.424C78.5582 9.82667 77.7208 9.528 76.6435 9.528C75.7688 9.528 75.0222 9.76267 74.4035 10.232C73.7848 10.6907 73.3102 11.368 72.9795 12.264C72.6595 13.1493 72.4995 14.2427 72.4995 15.544C72.4995 16.8133 72.6702 17.8747 73.0115 18.728C73.3635 19.5707 73.8542 20.2053 74.4835 20.632C75.1235 21.0587 75.8862 21.272 76.7715 21.272C77.5075 21.272 78.2168 21.1547 78.8995 20.92C79.5928 20.6747 80.2595 20.2853 80.8995 19.752L80.9475 20.76C80.2328 21.2827 79.6142 21.7147 79.0915 22.056C78.5688 22.3973 78.0942 22.664 77.6675 22.856C77.2515 23.0373 76.8568 23.1653 76.4835 23.24C76.1102 23.3147 75.7262 23.352 75.3315 23.352C73.9875 23.352 72.8462 23.064 71.9075 22.488C70.9688 21.912 70.2542 21.112 69.7635 20.088C69.2728 19.064 69.0275 17.88 69.0275 16.536C69.0275 15.224 69.2408 14.056 69.6675 13.032C70.0942 12.008 70.6755 11.144 71.4115 10.44C72.1475 9.72533 72.9955 9.18133 73.9555 8.808C74.9262 8.43467 75.9555 8.248 77.0435 8.248C77.5982 8.248 78.1422 8.296 78.6755 8.392C79.2195 8.47733 79.7688 8.61067 80.3235 8.792C80.8782 8.96267 81.4542 9.19733 82.0515 9.496L80.0515 10.136V3.16C79.9128 3.01067 79.7262 2.86133 79.4915 2.712C79.2675 2.552 79.0115 2.39733 78.7235 2.248C78.4355 2.088 78.1262 1.93333 77.7955 1.784V1.384L83.1075 -0.00800133H83.4115L83.2195 2.808V20.744C83.3262 20.8507 83.4648 20.9573 83.6355 21.064C83.8062 21.16 83.9928 21.2613 84.1955 21.368C84.3982 21.464 84.6008 21.5547 84.8035 21.64C85.0062 21.7147 85.1982 21.7787 85.3795 21.832V22.312L80.6115 23.352H80.2915L80.0515 20.888V12.648ZM107.758 7.368C107.758 6.36533 107.55 5.51733 107.134 4.824C106.718 4.13067 106.04 3.60267 105.102 3.24C104.163 2.86667 102.899 2.68 101.31 2.68H96.8618L97.0058 1.192H103.214C105.166 1.192 106.739 1.45867 107.934 1.992C109.128 2.52533 109.998 3.24533 110.542 4.152C111.096 5.05867 111.374 6.072 111.374 7.192C111.374 8.344 111.091 9.40533 110.526 10.376C109.96 11.336 109.075 12.104 107.87 12.68C106.675 13.256 105.123 13.544 103.214 13.544H97.0058L96.8618 12.056H102.862C103.8 12.056 104.638 11.88 105.374 11.528C106.11 11.1653 106.691 10.6373 107.118 9.944C107.544 9.24 107.758 8.38133 107.758 7.368ZM99.4698 1.192V21.576L102.014 22.392V23H93.3898V22.392L95.9178 21.576V2.616L93.3898 1.8V1.192H99.4698ZM118.464 8.248C119.584 8.248 120.55 8.488 121.36 8.968C122.171 9.448 122.811 10.1467 123.28 11.064C123.76 11.9813 124.054 13.0907 124.16 14.392H114.064L114.096 13.272L122.384 12.968L120.928 13.704C120.854 12.7867 120.704 12.0187 120.48 11.4C120.267 10.7707 119.968 10.296 119.584 9.976C119.2 9.64533 118.715 9.48 118.128 9.48C117.435 9.48 116.827 9.67733 116.304 10.072C115.782 10.4667 115.376 11.064 115.088 11.864C114.8 12.664 114.656 13.672 114.656 14.888C114.656 16.2 114.88 17.3093 115.328 18.216C115.776 19.1227 116.406 19.8107 117.216 20.28C118.038 20.7387 119.003 20.968 120.112 20.968C120.571 20.968 121.014 20.9147 121.44 20.808C121.878 20.6907 122.299 20.5147 122.704 20.28C123.12 20.0453 123.52 19.752 123.904 19.4L124.304 19.864C123.718 20.6533 123.12 21.3093 122.512 21.832C121.904 22.344 121.259 22.728 120.576 22.984C119.894 23.2293 119.158 23.352 118.368 23.352C117.035 23.352 115.851 23.048 114.816 22.44C113.792 21.8213 112.987 20.9627 112.4 19.864C111.824 18.7653 111.536 17.4853 111.536 16.024C111.536 14.616 111.808 13.3253 112.352 12.152C112.896 10.968 113.686 10.024 114.72 9.32C115.755 8.60533 117.003 8.248 118.464 8.248ZM134.845 13.832L135.021 14.904C133.826 15.2133 132.855 15.5227 132.109 15.832C131.362 16.1307 130.781 16.44 130.365 16.76C129.959 17.08 129.677 17.4213 129.517 17.784C129.367 18.136 129.293 18.5253 129.293 18.952C129.293 19.7093 129.495 20.28 129.901 20.664C130.317 21.048 130.829 21.24 131.437 21.24C131.906 21.24 132.327 21.128 132.701 20.904C133.085 20.6693 133.389 20.3547 133.613 19.96C133.837 19.5653 133.949 19.1227 133.949 18.632V12.376C133.949 11.576 133.741 10.9467 133.325 10.488C132.919 10.0293 132.263 9.8 131.357 9.8C130.983 9.8 130.589 9.84267 130.173 9.928C129.757 10.0133 129.378 10.136 129.037 10.296L129.789 9.48C129.746 9.90667 129.687 10.296 129.613 10.648C129.549 11 129.474 11.3093 129.389 11.576C129.303 11.832 129.197 12.0293 129.069 12.168C128.909 12.3493 128.685 12.4933 128.397 12.6C128.119 12.696 127.837 12.744 127.549 12.744C127.154 12.744 126.845 12.664 126.621 12.504C126.407 12.344 126.301 12.1253 126.301 11.848C126.301 11.4533 126.487 11.0533 126.861 10.648C127.234 10.232 127.73 9.85333 128.349 9.512C128.967 9.16 129.655 8.87733 130.413 8.664C131.17 8.45067 131.933 8.344 132.701 8.344C133.778 8.344 134.642 8.50933 135.293 8.84C135.943 9.16 136.413 9.624 136.701 10.232C136.989 10.84 137.133 11.5653 137.133 12.408V20.12C137.133 20.4293 137.181 20.6907 137.277 20.904C137.373 21.1067 137.506 21.256 137.677 21.352C137.858 21.448 138.077 21.496 138.333 21.496C138.589 21.496 138.861 21.4533 139.149 21.368C139.437 21.272 139.725 21.1387 140.013 20.968V21.704C139.447 22.2907 138.882 22.712 138.317 22.968C137.762 23.2133 137.218 23.336 136.685 23.336C136.087 23.336 135.586 23.208 135.181 22.952C134.786 22.696 134.493 22.328 134.301 21.848C134.109 21.3573 134.007 20.7813 133.997 20.12L134.109 20.04C133.938 20.712 133.655 21.2987 133.261 21.8C132.877 22.2907 132.413 22.6747 131.869 22.952C131.325 23.2187 130.733 23.352 130.093 23.352C128.93 23.352 127.975 23.0373 127.229 22.408C126.482 21.768 126.109 20.8507 126.109 19.656C126.109 19.0373 126.226 18.4773 126.461 17.976C126.706 17.4747 127.138 17 127.757 16.552C128.386 16.104 129.271 15.6613 130.413 15.224C131.565 14.7867 133.042 14.3227 134.845 13.832ZM146.15 8.248C146.854 8.248 147.478 8.31733 148.022 8.456C148.566 8.584 149.158 8.79733 149.798 9.096L150.102 13.048H149.382L147.558 9.048L148.742 10.408C148.305 10.0347 147.884 9.76267 147.478 9.592C147.084 9.42133 146.641 9.336 146.15 9.336C145.318 9.336 144.673 9.512 144.214 9.864C143.756 10.2053 143.526 10.696 143.526 11.336C143.526 11.8053 143.644 12.2 143.878 12.52C144.113 12.84 144.476 13.1333 144.966 13.4C145.457 13.6667 146.081 13.9493 146.838 14.248C147.414 14.4613 147.932 14.7067 148.39 14.984C148.849 15.2613 149.238 15.5813 149.558 15.944C149.878 16.296 150.124 16.7067 150.294 17.176C150.476 17.6453 150.566 18.184 150.566 18.792C150.566 19.752 150.321 20.5733 149.83 21.256C149.34 21.9387 148.673 22.4613 147.83 22.824C146.998 23.176 146.049 23.352 144.982 23.352C144.268 23.352 143.617 23.2933 143.03 23.176C142.444 23.0587 141.889 22.8827 141.366 22.648L140.646 18.44H141.414L143.766 22.76L142.038 21.592C142.401 21.784 142.732 21.9333 143.03 22.04C143.329 22.136 143.612 22.2053 143.878 22.248C144.156 22.28 144.428 22.296 144.694 22.296C145.665 22.296 146.454 22.0933 147.062 21.688C147.67 21.272 147.974 20.648 147.974 19.816C147.974 19.4107 147.889 19.064 147.718 18.776C147.548 18.488 147.302 18.232 146.982 18.008C146.662 17.7733 146.278 17.5547 145.83 17.352C145.393 17.1387 144.902 16.9253 144.358 16.712C143.644 16.424 143.041 16.088 142.55 15.704C142.06 15.32 141.686 14.8613 141.43 14.328C141.185 13.784 141.062 13.144 141.062 12.408C141.062 11.5227 141.286 10.776 141.734 10.168C142.193 9.54933 142.806 9.07467 143.574 8.744C144.353 8.41333 145.212 8.248 146.15 8.248Z" fill="#426B1F"/>
</svg>
